<?xml version="1.0" encoding="UTF-8"?>
<!DOCTYPE svg PUBLIC "-//W3C//DTD SVG 1.1//EN" "http://www.w3.org/Graphics/SVG/1.1/DTD/svg11.dtd">
<!-- Creator: CorelDRAW -->
<svg xmlns="http://www.w3.org/2000/svg" xml:space="preserve" width="400.307mm" height="549.078mm" version="1.1" style="shape-rendering:geometricPrecision; text-rendering:geometricPrecision; image-rendering:optimizeQuality; fill-rule:evenodd; clip-rule:evenodd"
viewBox="0 0 28074.61 38508.32"
 xmlns:xlink="http://www.w3.org/1999/xlink"
 xmlns:xodm="http://www.corel.com/coreldraw/odm/2003">
 <defs>
  <style type="text/css">
   <![CDATA[
    .fil0 {fill:#333333;fill-rule:nonzero}
   ]]>
  </style>
 </defs>
 <g id="Camada_x0020_1">
  <metadata id="CorelCorpID_0Corel-Layer"/>
  <g id="_2205822691360">
   <path class="fil0" d="M15404.02 36715.57c-2.35,0.71 -3.95,2.87 -3.95,5.32 0,1.23 0.41,2.43 1.16,3.4 155.69,211.72 306.55,393.76 483.2,586.37 288.11,314.33 488.95,539.54 602.51,675.62 105.52,126.43 188.16,233.25 247.91,320.46 45.89,66.93 83.56,131.32 113,193.17 0.2,0.43 0.36,0.94 0.46,1.47 0.57,3.23 -1.51,6.3 -4.64,6.84 -0.56,0.1 -1.13,0.11 -1.7,0.04 -17.48,-2.23 -30.31,-4.83 -38.47,-7.8 -133.1,-49.48 -251,-102.8 -353.67,-159.95 -516.6,-287.49 -1030.78,-617.41 -1542.55,-989.77 -81.77,-59.38 -179.56,-133.73 -293.37,-223.04 -557.3,-436.93 -1078.1,-866.13 -1562.41,-1287.6 -262.75,-228.61 -482.95,-429.38 -660.59,-602.33 -470.7,-458.08 -824.69,-800.75 -1061.96,-1028 -141.77,-135.71 -314.33,-293.74 -517.71,-474.1 -99.08,-87.95 -206.15,-197.06 -284.28,-273.14 -31.55,-30.68 -72.24,-52.95 -122.09,-66.8 -5.64,-1.52 -10.47,-5.34 -13.34,-10.55 -34.65,-63.48 -64.05,-105.61 -88.16,-126.39 -112.82,-97.23 -238.82,-202.82 -351.27,-305.43 -365.43,-333.14 -661.02,-601.52 -886.79,-805.14 -329.8,-297.39 -619.95,-547.77 -870.46,-751.14 -355.66,-288.73 -726.65,-587.23 -1112.98,-895.51 -363.57,-290.09 -723.75,-551.05 -1080.51,-782.88 -215.87,-140.28 -441.76,-260.52 -677.66,-360.73 -38.35,-16.33 -77.13,-38.47 -116.34,-66.43 -61.23,-43.66 -135.22,-85.73 -221.93,-126.18 -127.16,-59.14 -274.32,-119.44 -441.44,-180.92 -255.82,-94.14 -477.01,-167.01 -663.56,-218.59 -558.16,-154.76 -1167.72,-220.82 -1776.54,-243.09 -12.5,-0.37 -16.45,-6.43 -11.87,-18.19 33.52,-85.11 78.86,-164.9 136.02,-239.37 57.77,-75.21 104.53,-139.6 140.28,-193.17 185.81,-278.59 326.03,-526.93 420.66,-745.02 112.58,-259.66 188.03,-428.27 226.38,-505.84 214.51,-433.83 385.78,-774.33 513.81,-1021.5 53.94,-104.16 113.26,-203.87 177.95,-299.12 105.15,-155 245.06,-249.02 419.74,-282.05 74.59,-14.23 158.46,-22.08 251.61,-23.56 91.42,-1.36 204.92,-0.81 340.5,1.67 8.35,0.22 16.31,-4.79 19.92,-12.73 79.38,-183.51 171.2,-372.61 275.49,-567.33 132.12,-246.92 260.71,-478.56 385.78,-694.92 19.92,-34.27 28.89,-67.05 26.9,-98.34 -18.93,-309.89 -51.89,-689.92 -98.9,-1140.08 -47.32,-453.32 -124.14,-900.9 -237.7,-1340.48 -107.87,-418.13 -236.9,-834.21 -387.08,-1248.26 -125.81,-347.24 -292.75,-783.8 -500.82,-1309.67 -77.44,-195.95 -172.14,-453.25 -284.09,-771.92 -212.03,-603.44 -448,-1336.71 -707.9,-2199.81 -251.25,-834.15 -461.3,-1641.76 -630.16,-2422.84 -90.67,-419.24 -166.57,-821.84 -227.68,-1207.81 -46.15,-291.08 -95.69,-626.45 -148.63,-1006.1 -58.52,-419.24 -82.57,-781.88 -72.19,-1087.93 3.34,-100.32 15.77,-209.68 37.3,-328.07 11.26,-62.59 36.87,-144.37 76.82,-245.31 50.35,-127.17 82.14,-207.02 95.38,-239.56 28.45,-70.39 45.33,-125.13 50.66,-164.22 4.7,-33.78 1.05,-79.48 -10.95,-137.13 -96.86,-464.83 -150.49,-946.54 -118.76,-1409.88 30.25,-437.92 150.68,-859.88 306.73,-1272 103.79,-273.89 234.92,-600.53 393.39,-979.94 87.46,-209.68 186.67,-413.36 297.64,-611.04 141.02,-251.37 310.13,-486.66 507.32,-705.87 66.93,-74.22 156.73,-159.02 269.43,-254.4 79.05,-66.68 268.63,-227.5 568.74,-482.46 84.74,-72 236.09,-183.52 454.07,-334.56 335.24,-232.57 727.82,-466.31 1177.74,-701.23 885.73,-462.54 1832.21,-860.01 2839.43,-1192.4 543.69,-179.5 1069.69,-323.19 1578,-431.06 683.79,-145.11 1253.08,-278.9 1889.37,-358.31 258.67,-32.29 490.56,-31.92 695.66,1.12 290.71,46.76 475.59,74.78 554.64,84.05 128.28,14.97 286.44,4.33 474.48,-31.92 207.64,-40.08 539.61,-124.88 823.51,-158.65 1775.99,-210.99 3573.5,-178.7 5333.9,118.38 1073.27,180.98 2094.78,462.72 3064.51,845.22 371.98,146.71 740.38,316.99 1105.19,510.84 345.88,183.83 666.78,379.41 962.68,586.74 226.38,158.59 428.7,327.94 606.96,508.06 140.65,142.14 251.56,295.6 332.71,460.37 33.03,67.05 55.79,144.18 68.29,231.39 9.28,64.7 8.54,143.81 -2.23,237.33 -17.57,152.53 -53.75,327.76 -108.55,525.69 -108.49,392.4 -241.73,778.61 -399.69,1158.63 -54.56,131.25 -113.69,256.26 -177.4,375.01 -228.98,426.79 -509.54,875.28 -720.71,1260.14 -6.06,11.01 -16.76,35.19 -32.1,72.55 -9.77,23.87 -12.37,49.67 -7.79,77.38 9.4,55.66 16.94,91.73 22.64,108.18 126.55,361.34 197.93,577.4 214.14,648.16 144.61,636.47 349.46,1394.29 614.57,2273.48 127.54,422.7 304.31,1022.37 530.33,1798.99 59.63,204.73 97.04,368.15 112.26,490.25 13.49,108.74 12.99,188.84 -1.49,240.3 -16.58,59.26 -28.52,101.38 -35.81,126.36 -16.21,54.92 -24.93,97.6 -26.17,128.03 -3.09,74.47 3.16,131.5 18.74,171.09 19.55,49.48 36.74,91.17 51.59,125.07 36.37,83.31 32.29,157.35 -7.43,241.96 -36.49,78.06 -85.72,149 -147.7,212.84 -60.5,62.22 -142.57,139.35 -246.24,231.39 -206.71,183.52 -330.29,404.15 -321.94,692.69 8.54,299.31 90.18,580.61 218.41,866.19 73.73,164.65 155.06,322.93 244.01,474.85 10.77,18.43 405.08,692.76 1182.94,2022.96 139.73,239.01 325.1,526.62 447.2,740.2 7.17,12.62 22.64,46.27 46.39,100.94 41.07,94.39 50.47,184.08 28.21,269.06 -13.49,51.71 -34.95,107.5 -64.39,167.37 -103.66,211.29 -209.49,422.51 -317.49,633.68 -55.92,109.6 -119.63,206.65 -191.13,291.14 -141.77,167.93 -320.09,199.67 -532.37,216.92 -74.47,6.06 -202.75,17.07 -384.85,33.03 -176.78,15.46 -341.43,48.37 -493.96,98.72 -8.29,2.84 -9.9,7.85 -4.83,15.03 48,68.41 147.71,203.87 299.12,406.38 127.17,170.09 221.13,365.43 281.86,585.99 79.05,287.24 150.93,601.77 215.62,943.57 22.02,116.03 37.91,232.69 47.69,349.96 5.93,70.64 4.2,141.28 -5.2,211.91 -15.46,115.17 -78.68,184.39 -189.65,207.64 -157.72,33.03 -252.05,53.01 -282.98,59.94 -117.77,26.35 -238.32,82.95 -361.65,169.79 -5.32,3.84 -8.1,9.03 -8.35,15.58 -1.73,74.22 16.95,146.04 56.04,215.43 21.9,38.85 62.04,123.96 120.42,255.33 17.69,40.08 36.06,75.71 55.11,106.88 52.7,86.66 98.16,148.45 114.49,236.03 19.67,105.02 33.52,217.6 41.57,337.72 12.74,189.76 21.46,389.92 26.17,600.47 11.5,523.9 10.51,1040.49 -2.97,1549.79 -4.21,158.35 -14.29,319.35 -30.24,483.01 -17.2,175.54 -26.97,298.75 -29.32,369.63 -9.15,270.67 1.23,561.38 31.17,872.13 65.31,677.54 194.65,1340.05 388,1987.52 55.85,186.67 159.59,454.62 209.13,591.37 58.82,162.37 96.86,334.2 -15.03,478 -43.55,56.16 -98.16,108.12 -163.85,155.87 -389.43,283.04 -800.26,510.54 -1232.48,682.49 -554.2,220.57 -1127.21,323.43 -1719.02,308.58 -762.83,-18.93 -1499.51,-211.35 -2230.24,-470.58 -764.5,-271.41 -1510.7,-593.79 -2238.58,-967.14 -108.99,-55.92 -218.28,-114.18 -327.88,-174.8 -393.76,-217.66 -841.88,-465.94 -1277.21,-678.59 -114.3,-55.79 -227.55,-103.42 -339.76,-142.88 -14.48,-5.07 -27.03,-2.04 -37.67,9.1 -129.89,136.38 -234.73,310.06 -323.43,475.21 -101.07,187.66 -185.31,357.33 -252.73,508.99 -220.45,495.56 -386.15,900.45 -497.11,1214.67 -111.34,315.08 -201.7,646.61 -271.1,994.6 -52.2,261.76 -99.76,524.94 -142.69,789.55 -27.09,166.75 -60.37,314.9 -99.83,444.41 -20.65,67.67 -34.51,130.83 -41.56,189.46 -42.68,357.89 -87.64,696.9 -134.9,1017.06 -27.84,188.4 -63.09,360.1 -105.77,515.11 -27.83,101.13 -93.15,256.44 -195.02,288.18zm6673.44 -34582.86c205.41,62.35 380.77,209.86 498.23,380.95 107.37,156.36 203.19,326.58 287.43,510.66 0.82,1.61 2.48,2.63 4.29,2.63 2.46,0 4.53,-1.85 4.8,-4.3 19.42,-258.18 -33.65,-492.29 -159.21,-702.34 -173.31,-290.03 -473.92,-498.23 -765.25,-655.77 -376.87,-203.74 -779.35,-377.43 -1187.21,-538.86 -322.13,-127.54 -631.03,-230.71 -926.68,-309.51 -44.78,-12 -115.29,-23.94 -211.53,-35.82 -6.31,-0.86 -6.93,0.62 -1.86,4.45 61.73,46.14 97.98,71.69 108.74,76.64 173.56,80.65 352.68,166.14 537.38,256.44 300.11,146.47 583.22,311.68 849.31,495.63 218.83,151.29 411.94,319.66 579.32,505.1 204.67,226.94 357.76,491.73 430.5,788.26 21.65,88.2 41.07,182.16 58.27,281.86 59.75,345.7 92.41,674.88 127.48,1028.37 2.97,29.57 6.25,29.63 9.83,0.18 30.06,-245.06 50.78,-483.87 62.17,-716.44 10.27,-209.93 -11.51,-417.13 -65.31,-621.63 -37.36,-142.14 -83.93,-288.54 -139.73,-439.21 -48.12,-129.65 -84.67,-229.05 -109.66,-298.2 -3.09,-8.78 -0.19,-11.81 8.72,-9.09zm-8447.76 -1317.85c587.23,144.12 1208.55,350.52 1863.94,619.22 326.71,133.97 696.9,293.12 1110.57,477.44 241.78,107.81 472.62,210.43 699.38,278.15 6.06,1.73 7.85,-0.31 5.38,-6.12 -21.03,-50.84 -59.01,-94.51 -113.94,-131 -303.45,-201.52 -505.65,-332.65 -606.59,-393.39 -248.65,-149.56 -537.19,-288.86 -865.63,-417.88 -557.98,-219.33 -1142.12,-389.31 -1732.01,-434.96 -104.29,-8.04 -228.11,-10.01 -371.49,-5.93 -15.58,0.49 -16.33,4.2 -2.22,11.13 0.86,0.37 5.07,1.49 12.62,3.34zm6669.55 2862.07c1.73,5.07 3.16,9.28 4.26,12.62 4.58,12.62 8.91,12.55 12.99,-0.18 82.39,-260.71 -15.4,-561.32 -143.62,-808.67 -179.62,-346.5 -418.56,-665.05 -716.81,-955.63 -214.51,-209.13 -428.45,-357.21 -691.76,-501.94 -275.74,-151.79 -559.15,-282.05 -850.24,-390.79 -243.7,-91.05 -482.14,-157.67 -715.32,-199.85 -80.66,-14.59 -180,-25.23 -298.01,-31.92 -1.85,-0.13 -3.21,0.87 -4.08,2.97l0 0.18c-0.86,1.98 0.13,3.22 2.97,3.71 106.01,19.79 210.48,49.18 313.41,88.14 272.77,103.17 543.19,227.19 811.27,372.05 384.29,207.82 692.32,385.78 996.82,626.82 407.98,323.12 742.91,713.78 1004.8,1171.99 109.11,191 200.21,394.5 273.33,610.49zm4322.23 1532.53c113.44,-207.95 203.62,-380.15 270.54,-516.6 226.75,-462.23 538.86,-1280.36 -63.09,-1620.86 -11.87,-6.68 -15.52,-3.59 -10.95,9.28 64.39,179.81 131.93,350.33 149.56,505.83 12.62,112.08 6.55,237.76 -18.19,377.05 -40.45,227.5 -90.25,427.59 -149.38,600.29 -79.54,231.82 -148.01,453.75 -205.42,665.79 -5.32,19.55 -1.3,21.52 12.06,5.93 0.5,-0.62 5.44,-9.52 14.85,-26.72zm-763.95 13329.28c-22.46,171.82 -46.95,368.33 -31.92,552.96 15.59,189.65 126.36,257.93 308.58,281.5 62.97,8.16 133.23,11.38 210.8,9.65 451.53,-10.15 768.52,-17.57 950.99,-22.27 145.23,-3.84 335.8,0.43 571.71,12.8 216.98,11.26 414.97,45.34 593.97,102.25 115.05,36.49 217.91,95.25 308.58,176.27 48.99,43.61 97.42,117.28 142.33,162.74 33.03,33.52 69.46,48.74 109.29,45.65 20.78,-1.49 52.94,-16.58 96.49,-45.28 207.64,-136.2 410.46,-349.21 498.04,-578.19 50.35,-131.74 41.44,-259.35 -26.72,-382.81 -83.5,-151.42 -219.52,-337.35 -297.82,-463.71 -290.34,-467.61 -587.54,-970.35 -891.62,-1508.22 -141.64,-250.51 -265.16,-480.79 -370.56,-690.84 -48.86,-97.36 -103.92,-232.01 -165.15,-403.96 -105.89,-296.89 -185.31,-585.12 -238.25,-864.7 -44.04,-232.69 -56.97,-453.88 -38.78,-663.56 21.9,-252.37 106.95,-489.63 255.14,-711.8 110.84,-166.14 181.05,-273.83 210.61,-323.06 147.21,-245.31 190.2,-517.65 128.97,-817.02 -25.36,-123.71 -67.54,-282.61 -126.55,-476.7 -72.73,-238.82 -163.66,-508.62 -244.57,-779.72 -69.28,-232.57 -205.66,-694.49 -409.15,-1385.76 -130.76,-443.98 -224.28,-784.73 -280.57,-1022.25 -56.91,-240.6 -124.14,-531.25 -201.71,-871.94 -51.21,-224.16 -134.53,-405.08 -331.59,-531.07 -102.06,-65.07 -195.76,-119.69 -281.12,-163.85 -391.72,-202.26 -614.76,-329.74 -924.27,-446.64 -353.55,-133.6 -724.11,-255.08 -1111.69,-364.44 -526.86,-148.7 -1051.62,-272.9 -1574.28,-372.61 -460.32,-87.83 -857.84,-144.67 -1192.58,-170.53 -250.38,-19.3 -419.61,-27.65 -507.69,-25.05 -132.24,3.71 -254.4,11.69 -366.48,23.94 -3.48,0.39 -6.11,3.32 -6.11,6.82 0,1.82 0.73,3.58 2.02,4.87 47.01,45.28 104.29,91.54 171.83,138.8 108.86,76.08 197.18,136.94 264.98,182.59 126.8,85.36 234.61,183.71 323.42,295.04 105.96,132.68 244.38,309.7 357.94,467.24 323.86,449.18 547.34,759.37 670.42,930.58 53.94,75.09 93.65,135.08 119.13,179.99 131.56,231.21 250.14,491.17 211.16,762.46 -13.73,95.25 -40.08,194.16 -79.05,296.71 -47.63,125.19 -116.47,285.15 -206.53,479.86 -103.73,224.34 -209.5,426.79 -398.02,575.42 -19.55,15.46 -114.86,77.44 -285.94,185.93 -135.46,85.98 -270.42,172.76 -404.89,260.34 -87.34,56.91 -302.52,184.94 -645.56,384.11 -104.16,60.37 -240.67,147.27 -409.53,260.71 -157.91,105.96 -292.62,186.3 -444.6,285.94 -186.43,122.22 -318.42,285.7 -395.98,490.44 -35.26,93.02 -64.39,187.41 -87.4,283.16 -202.07,838.54 -358.31,1651.48 -443.3,2491.88 -30.68,302.96 -47.94,594.84 -51.77,875.66 -4.83,360.85 -3.46,690.22 4.08,988.1 2.1,87.22 10.52,197.19 25.24,329.92 36.86,334.88 169.04,623.48 396.54,865.82 96,102.18 196.94,200.16 302.83,293.93 158.1,140.03 250.32,222.43 276.67,247.16 1050.14,985.08 2023.08,1897.47 2918.84,2737.18 76.33,71.5 128.41,126.18 156.24,164.03 80.16,108.74 135.83,260.53 163.11,392.46 28.45,137.93 48.92,287 61.42,447.19 22.51,292.32 45.96,517.71 70.32,676.18 44.17,288.36 129.89,554.82 290.78,785.1 1.35,1.9 3.55,3.03 5.89,3.03 3.16,0 5.97,-2.06 6.91,-5.08 142.39,-494.44 303.02,-972.87 481.9,-1435.29 175.35,-452.95 380.76,-915.93 644.63,-1313.02 38.35,-57.77 93.46,-129.46 165.33,-215.06 94.02,-111.83 206.72,-196.94 338.09,-255.32 96.24,-42.93 207.89,-78.25 334.94,-105.96 139.91,-30.56 280.5,-61.67 421.77,-93.34 101.07,-22.76 190.2,-54.55 267.39,-95.37 19.67,-10.39 21.4,-23.26 5.2,-38.6 -161.81,-153.52 -319.66,-307.53 -473.55,-462.03 -186.8,-187.53 -243.51,-411.26 -170.16,-671.17 44.29,-156.73 131.13,-278.9 260.52,-366.48 1.11,-0.75 2.42,-1.16 3.76,-1.16 3.69,0 6.68,2.99 6.68,6.68 0,0.26 -0.01,0.53 -0.05,0.79zm-10923.12 -4731.02c-72.99,-61.73 -138.74,-130.88 -197.26,-207.45 -53.81,-70.15 -145.6,-201.08 -275.37,-392.83 -223.41,-330.17 -520.99,-596.32 -892.73,-798.46 -449.61,-244.38 -986.06,-280.57 -1440.5,-36.92 -536.63,287.8 -839.09,870.27 -1003.87,1442.35 -166.39,577.46 -206.96,1157.52 -121.73,1740.17 114.12,779.53 452.76,1544.04 960.27,2171.04 94.14,116.16 245.62,302.22 454.43,558.16 376.13,460.74 753.19,859.32 1256.05,1122.44 345.51,180.74 726.83,220.07 1102.78,108 157.23,-46.88 296.96,-112.82 419.18,-197.8 84.99,-59.01 168.3,-160.51 220.44,-213.4 1.29,-1.26 3.03,-1.98 4.83,-1.98 3.77,0 6.83,3.04 6.87,6.8l-0.01 305.99c0.02,4.55 -2.03,8.86 -5.55,11.68 -27.47,22.39 -82.9,69.9 -166.27,142.52 -262.75,228.6 -566.76,355.77 -912.03,381.5 -97.73,7.3 -191.99,9.59 -282.79,6.87 -140.66,-4.45 -281.06,-39.21 -421.22,-104.28 -212.4,-98.47 -408.78,-207.21 -589.15,-326.21 -609,-401.67 -1179.29,-850.54 -1710.86,-1346.6 -159.33,-148.82 -266.64,-257.74 -321.94,-326.77 -153.52,-191.62 -259.16,-319.22 -316.94,-382.81 -38.72,-42.56 -77.07,-81.46 -115.05,-116.71 -3.37,-3.1 -7.81,-4.82 -12.39,-4.82 -6.9,0 -13.22,3.87 -16.35,10.01 -51.35,101.44 -103.12,218.83 -155.33,352.19 -119.74,305.06 -263.37,685.52 -430.87,1141.37 -24.62,66.93 -95.5,235.04 -212.65,504.35 -58.88,135.33 -107.87,248.89 -146.96,340.68 -51.71,121.23 -167.62,397.03 -347.74,827.41 -134.1,320.27 -334.75,721.39 -601.96,1203.35 -158.65,286.13 -320.27,558.54 -480.97,855.8 -146.09,270.05 -287.31,527.54 -423.63,772.48 -84.99,152.53 -157.23,274.57 -216.74,366.11 -85.6,131.62 -149.62,237.34 -192.05,317.13 -13.61,25.48 -94.08,171.64 -241.41,438.48 -125.19,226.63 -236.34,445.03 -333.45,655.21 -55.55,120.24 -68.72,230.09 -39.53,329.55 36.19,123.21 131.19,210.61 241.6,277.04 88.45,53.07 178.45,100.08 269.99,141.03 351.95,157.48 708.71,346.69 1070.31,567.63 608.51,371.74 1225.68,784.17 1851.51,1237.31 207.82,150.43 399.82,299.37 575.98,446.83 484.18,404.76 950.99,822.15 1400.42,1252.15 576.16,551.12 1113.91,1141.38 1596.18,1781.37 132.49,175.72 250.69,414.36 429.94,555.2 25.05,19.67 34.33,35.44 54.93,66.24 288.6,430.99 629.17,939.3 1021.69,1524.93 63.96,95.38 130.2,199.91 198.73,313.59 257.06,426.05 509.92,864.83 758.57,1316.36 141.02,255.89 298.38,525.5 449.61,748.36 236.52,348.11 479.85,684.4 729.99,1008.89 3.19,4.17 8.15,6.61 13.4,6.61 2.77,0 5.49,-0.68 7.93,-1.98 43.8,-23.38 80.53,-59.75 104.66,-103.35 42.8,-77.19 77.31,-173.68 103.54,-289.47 31.66,-140.16 56.41,-269.93 74.22,-389.3 38.35,-258.67 71.69,-507.75 100.02,-747.25 4.21,-35.75 12.18,-93.58 23.94,-173.49 10.39,-70.39 17.75,-128.04 22.08,-172.95 2.72,-28.82 -0.87,-58.26 -10.77,-88.33 -61.23,-185.74 -70.88,-373.53 -64.76,-579.87 6.06,-208.81 30.68,-456.79 73.86,-743.9 5.32,-35.51 64.57,-403.1 177.77,-1102.78 25.85,-159.83 40.51,-333.89 43.97,-522.17 0.25,-15.22 1.8,-29.01 4.64,-41.38 2.97,-13.36 6.49,-26.85 10.58,-40.45 195.95,-653.91 391.71,-1306.83 587.29,-1958.76 2.04,-6.81 0.04,-14.21 -5.19,-19.12 -36.5,-34.39 -74.54,-68.72 -114.12,-102.98 -10.15,-8.66 -104.47,-85.3 -282.98,-229.91 -82.57,-66.8 -149.94,-131 -220.82,-201.33 -109.48,-108.55 -265.53,-235.66 -370.19,-326.96 -58.64,-51.34 -122.84,-111.71 -192.61,-181.1 -275.55,-274.44 -573.56,-545.55 -868.6,-814.23 -158.47,-144.37 -326.52,-290.15 -504.16,-437.36 -108.5,-89.94 -205.29,-190.94 -290.41,-303.02 -147.33,-193.97 -291.95,-395.61 -433.83,-604.92 -79.67,-117.4 -151.3,-239.06 -214.88,-365 -116.53,-230.34 -166.75,-477.13 -150.67,-740.38 7.79,-128.53 29.38,-308.09 64.76,-538.68 10.14,-66.8 29.75,-140.71 58.82,-221.75 45.65,-127.05 93.89,-282.05 144.73,-465.01 220.57,-795.06 443.93,-1688.22 670.05,-2679.48 76.21,-334.25 148.01,-675.19 215.44,-1022.8 36.99,-190.63 61.91,-363.2 74.78,-517.71 1.86,-23.13 4.58,-38.41 8.17,-45.83 16.33,-33.4 32.28,-74.96 40.63,-108.18 29.69,-119.13 51.71,-230.76 66.06,-334.93 36,-260.53 61.79,-474.54 77.38,-642.04 108.18,-1160.49 187.04,-2556.08 255.33,-3898.41 6.56,-127.91 19.67,-291.64 39.34,-491.18 20.23,-205.41 -4.08,-403.4 -207.45,-506.01 -341.55,-172.2 -707.36,-329 -1097.4,-470.39 -186.43,-67.54 -371.61,-120.43 -555.56,-158.65 -0.67,-0.14 -1.35,-0.21 -2.03,-0.21 -5.43,0 -9.83,4.4 -9.83,9.83 0,0.63 0.06,1.26 0.18,1.89l92.03 468.35c0.18,0.72 0.18,1.51 -0.01,2.26 -0.67,2.69 -3.47,4.3 -6.26,3.6 -0.74,-0.19 -1.44,-0.53 -2.04,-1.01l-0.04 -0.03z"/>
   <path class="fil0" d="M25420.68 12855.81c125.99,-14.48 221.56,-61.24 330.3,-130.64 0.43,-0.26 0.86,-0.47 1.28,-0.64 4.47,-1.81 9.52,0.27 11.28,4.64 0.19,0.46 0.34,0.94 0.43,1.42 48.11,217.57 -10.84,398.84 -176.85,543.83 -44.04,38.47 -92.66,76.51 -145.85,114.12 -193.54,137.31 -438.1,279.26 -673.58,189.46 -57.89,-22.02 -113.93,-53.07 -168.11,-93.15 -153.39,-113.44 -261.27,-193.66 -323.62,-240.67 -222.3,-167.37 -481.9,-274.81 -778.79,-322.32 -174.8,-27.84 -331.78,-45.59 -470.95,-53.26 -528.11,-28.7 -1014.58,-5.51 -1459.43,69.59 -167.13,28.21 -276.73,52.33 -328.81,72.37 -112.45,43.17 -215.07,78.74 -307.85,106.7 -92.9,27.95 -185.07,26.22 -276.48,-5.2 -7.17,-2.48 -11.01,-4.89 -11.5,-7.24 -1.42,-6.96 1.91,-14.22 8.37,-18.73 80.88,-57.28 192.03,-126.88 333.42,-208.77 532.19,-308.28 1042.41,-580.43 1530.68,-816.46 109.85,-53.07 216.3,-98.22 319.35,-135.45 39.71,-14.35 85.98,-21.84 138.8,-22.46 59.75,-0.62 156.86,11.69 291.32,36.92 186.43,34.88 382.81,79.43 589.15,133.6 317.43,83.38 745.45,201.95 1284.07,355.72 43.79,12.5 85.05,28.58 123.77,48.24 47.87,24.37 80.53,76.95 97.98,157.73 7.17,33.03 23.44,103.54 48.8,211.53 1.61,6.93 5.88,9.96 12.81,9.1z"/>
   <path class="fil0" d="M12126.85 15783.93c26.59,26.97 72,68.29 136.2,123.95 71.44,62.17 106.88,172.39 125.07,277.79 8.42,48 23.14,153.64 44.16,316.93 5.94,45.4 32.16,96.43 78.68,153.09 27.84,33.78 73.91,71.14 138.24,112.08 91.54,58.15 153.27,97.73 185.19,118.76 90.92,59.63 149.93,106.01 177.02,139.16 116.9,143.81 130.08,330.11 103.91,508.99 -15.21,104.84 -149,175.91 -242.71,193.91 -104.53,20.16 -216.61,17.56 -336.24,-7.8 -116.9,-24.86 -211.04,-50.97 -282.42,-78.3 -455.98,-174.55 -858.89,-436.62 -1208.74,-786.21 -116.16,-116.16 -218.09,-244.63 -305.8,-385.41 -144.74,-232.32 -220.81,-500.64 -138.61,-768.96 45.64,-149.19 121.29,-296.22 226.94,-441.08 99.21,-136.2 197.25,-256.26 294.12,-360.17 88.82,-95.25 183.82,-197.68 285.02,-307.29 68.78,-74.47 112.75,-134.96 131.93,-181.48 30.56,-74.47 33.4,-152.78 8.54,-234.92 -64.58,-213.27 -168.19,-415.84 -310.81,-607.71 -157.73,-212.1 -397.84,-371.3 -672.1,-293.18 -122.47,34.88 -236.59,101.69 -342.36,200.4 -280.81,262.38 -465.75,581.73 -554.82,958.04 -41.2,173.81 -77.63,349.66 -109.29,527.54 -6.56,36.87 -12.62,36.74 -18.19,-0.37 -43.55,-285.51 -31.61,-572.2 35.81,-860.06 49.36,-210.17 126.36,-417.63 231.02,-622.36 83.75,-164.16 180.98,-300.24 291.7,-408.24 220.26,-215.06 519.94,-293.18 825.19,-240.11 113.31,19.79 210.36,46.64 291.14,80.53 116.16,48.87 227.92,129.58 335.3,242.15 134.84,141.28 229.35,241.97 283.53,302.1 60.74,67.29 118.57,155.74 173.5,265.35 77.93,155.5 129.64,330.67 155.13,525.5 28.82,219.82 33.71,454.38 14.66,703.64 -28.57,373.34 -47.5,645.25 -56.78,815.72 -0.37,6.93 1.91,12.93 6.87,18z"/>
   <path class="fil0" d="M23547.83 14983.43c-12,-14.72 -47.26,-33.52 -105.77,-56.41 -44.04,-17.2 -129.34,-48.31 -255.89,-93.34 -501.76,-178.32 -964.91,-475.03 -1374.63,-808.66 -3.39,-2.71 -5.37,-6.82 -5.37,-11.17 0,-3.73 1.47,-7.32 4.07,-9.99 68.9,-70.52 153.32,-126.55 253.28,-168.12 501.5,-208.57 1026.95,-321.2 1576.32,-337.9 143.07,-4.27 284.28,4.26 420.48,21.15 176.1,22.08 357.75,69.02 496.18,169.41 4.83,3.53 7.69,9.15 7.69,15.13 0,2.24 -0.41,4.47 -1.19,6.58 -43.55,117.65 -124.32,213.39 -242.34,287.24 -63.22,39.46 -127.98,78.8 -194.28,118.02 -87.58,51.71 -150.3,93.89 -188.16,126.55 -80.78,69.65 -148.94,151.3 -204.49,244.95 -39.09,65.81 -54.25,134.28 -45.46,205.41 2.22,18.93 16.52,51.77 42.87,98.53 24.62,43.79 39.4,74.96 44.34,93.52 28.21,104.84 -32.65,211.72 -91.85,299.68 -2.01,2.91 -5.31,4.64 -8.84,4.64 -4.14,0 -7.92,-2.38 -9.71,-6.12 -41.07,-87.22 -80.15,-153.58 -117.27,-199.11zm-444.42 -426.97c0.2,0.03 0.29,0.04 0.39,0.05 4.99,0.53 9.46,-3.02 9.97,-7.91 0.01,-0.13 0.03,-0.27 0.04,-0.4l54.55 -660.68c0.02,-0.27 0.03,-0.43 0.04,-0.6 0.08,-4.51 -3.6,-8.23 -8.21,-8.31 -0.15,0 -0.31,0 -0.46,0.01 -163.6,3.34 -328.09,27.77 -493.49,73.29 -145.48,40.08 -272.58,100.39 -368.52,198.92 -1.03,1.1 -1.6,2.55 -1.6,4.05 0,1.94 0.94,3.75 2.52,4.86 144.12,96.73 264.86,174.42 362.21,233.06 139.17,83.63 286.69,138.18 442.56,163.66z"/>
   <path class="fil0" d="M12270.29 18347.06c6.68,5.32 12.19,11.45 16.52,18.37 1.24,2.01 1.89,4.33 1.89,6.68 0,5.22 -3.17,9.92 -8.01,11.87 -63.84,25.61 -137.32,35.25 -205.61,30.06 -122.35,-9.4 -251.74,-41.01 -388.19,-94.83 -436.19,-171.95 -808.05,-421.9 -1115.58,-749.84 -119.75,-127.66 -210.86,-268.13 -273.33,-421.41 -1.51,-3.82 -0.11,-8.21 3.38,-10.6 2.45,-1.71 4.47,-2.13 6.08,-1.27 76.45,36 136.94,69.28 181.48,99.83 141.77,97.04 302.65,225.82 468.72,327.69 366.3,224.16 736.86,419.92 1103.33,639.07 71.38,42.68 141.15,90.8 209.31,144.36z"/>
   <path class="fil0" d="M10003.87 34432.82c20.29,34.27 45.28,68.84 74.96,103.73 115.79,135.59 234.98,266.84 357.57,393.76 192.61,199.54 484.93,496.68 876.96,891.43 186.11,187.23 341.8,378.91 528.1,597.87 26.1,30.56 20.72,37.79 -16.14,21.71 -81.52,-35.75 -161.56,-78.06 -240.11,-126.92 -184.08,-114.31 -357.7,-228.3 -520.87,-341.99 -669.49,-466.68 -1319.69,-951.17 -1982.7,-1456.45 -91.42,-69.65 -191.19,-143.25 -299.31,-220.82 -412.93,-296.15 -866.5,-599.48 -1360.71,-909.99 -440.52,-276.6 -818.01,-508.43 -1132.47,-695.47 -437.92,-260.28 -897.55,-497.55 -1378.89,-711.81 -144.49,-64.33 -569.55,-257.12 -1275.17,-578.38 -146.47,-66.56 -260.58,-113.87 -342.35,-141.96 -432.35,-148.08 -883.26,-223.04 -1364.79,-311.37 -166.51,-30.56 -288.98,-52.08 -367.41,-64.57 -450.29,-71.87 -821.97,-132.92 -1115.02,-183.15 -171.82,-29.32 -318.05,-58.08 -438.67,-86.28 -7.17,-1.73 -8.72,-5.69 -4.64,-11.87 10.64,-15.84 26.78,-31.11 48.43,-45.83 92.9,-63.59 193.47,-122.23 301.72,-175.91 480.97,-238.82 999.79,-439.4 1551.09,-648.53 77.44,-29.44 151.04,-45.96 220.81,-49.54 41.2,-2.1 115.67,0.37 223.41,7.42 174.8,11.51 350.4,41.38 526.8,89.63 258.18,70.51 516.85,167.31 776.01,290.4 201.65,95.75 372.36,177.58 512.14,245.49 179.81,87.22 305.81,141.96 514.93,235.11 746.69,332.15 1439.26,724.3 2077.71,1176.45 394.25,279.21 804.65,596.26 1231.19,951.17 388.81,323.49 792.46,661.34 1210.96,1013.53 39.22,32.91 75.95,66.18 110.22,99.83 191.5,187.97 375.39,374.28 490.44,480.23 67.42,61.98 133.79,114.06 199.11,156.24 2.6,1.74 4.89,4.07 6.62,6.75l0.06 0.11z"/>
  </g>
 </g>
</svg>
