<svg width="94" height="49" viewBox="0 0 94 49" fill="none" xmlns="http://www.w3.org/2000/svg">
<path d="M0.376953 2.32031H2.90625C3.29036 2.32031 3.71029 2.34635 4.16602 2.39844C4.62826 2.44401 5.08724 2.55469 5.54297 2.73047C5.9987 2.89974 6.41536 3.16992 6.79297 3.54102C7.17708 3.91211 7.48307 4.41667 7.71094 5.05469C7.9388 5.69271 8.05273 6.50326 8.05273 7.48633V8.07227C8.05273 9.13997 7.94531 10.0286 7.73047 10.7383C7.52214 11.4479 7.24219 12.0176 6.89062 12.4473C6.53906 12.8704 6.14518 13.1895 5.70898 13.4043C5.2793 13.6126 4.8431 13.7526 4.40039 13.8242C3.95768 13.8893 3.54102 13.9219 3.15039 13.9219H2.90625V19H0.376953V2.32031ZM3.0332 12.0664C3.95117 12.0664 4.58268 11.793 4.92773 11.2461C5.2793 10.6992 5.45508 9.79753 5.45508 8.54102V7.03711C5.45508 6.04753 5.28906 5.31836 4.95703 4.84961C4.63151 4.38086 3.99023 4.14648 3.0332 4.14648H2.90625V12.0664H3.0332ZM12.1836 11.5293C12.431 11.4056 12.6979 11.2786 12.9844 11.1484C13.2708 11.0182 13.5345 10.9108 13.7754 10.8262V9.19531C13.7754 8.85677 13.7591 8.54102 13.7266 8.24805C13.7005 7.95508 13.6126 7.71745 13.4629 7.53516C13.3197 7.34635 13.0723 7.25195 12.7207 7.25195C12.3691 7.25195 12.0534 7.39518 11.7734 7.68164C11.4935 7.9681 11.3535 8.4987 11.3535 9.27344V9.81055H9.46875C9.35156 9.30273 9.29297 8.86003 9.29297 8.48242C9.29297 7.47982 9.62174 6.7181 10.2793 6.19727C10.9368 5.66992 11.7767 5.40625 12.7988 5.40625C13.6908 5.40625 14.3874 5.5332 14.8887 5.78711C15.39 6.03451 15.7415 6.41211 15.9434 6.91992C16.1452 7.42122 16.2461 8.05924 16.2461 8.83398V19H14.3418L14.166 17.8477C13.9056 18.2253 13.5605 18.5378 13.1309 18.7852C12.7012 19.0326 12.2031 19.1562 11.6367 19.1562C11.0508 19.1562 10.569 19.0065 10.1914 18.707C9.8138 18.4076 9.5306 18.0137 9.3418 17.5254C9.15951 17.0306 9.06836 16.4935 9.06836 15.9141C9.06836 14.8073 9.33203 13.9284 9.85938 13.2773C10.3867 12.6198 11.1615 12.0371 12.1836 11.5293ZM12.7305 17.2715C12.9388 17.2715 13.1309 17.2194 13.3066 17.1152C13.4824 17.0046 13.6387 16.8711 13.7754 16.7148V12.4766C13.6517 12.5286 13.5182 12.5905 13.375 12.6621C13.2318 12.7337 13.0658 12.8281 12.877 12.9453C12.5319 13.1602 12.2096 13.4824 11.9102 13.9121C11.6107 14.3353 11.4609 14.8757 11.4609 15.5332C11.4609 16.0475 11.5618 16.4674 11.7637 16.793C11.9655 17.112 12.2878 17.2715 12.7305 17.2715ZM18.5605 5.55273H21.0312V15.4453C21.0312 16.0378 21.1224 16.4512 21.3047 16.6855C21.487 16.9134 21.7539 17.0273 22.1055 17.0273C22.6263 17.0273 23.0788 16.7637 23.4629 16.2363V5.55273H25.9336V19H24.0488L23.8047 17.5645H23.7949C23.4108 18.1764 22.9746 18.5964 22.4863 18.8242C22.0046 19.0456 21.5163 19.1562 21.0215 19.1562C20.2402 19.1562 19.6348 18.8828 19.2051 18.3359C18.7754 17.7826 18.5605 16.9557 18.5605 15.8555V5.55273ZM28.4629 1.23633H30.9336V19H28.4629V1.23633ZM36.8516 19.1465C36.4219 19.1465 35.9889 19.0846 35.5527 18.9609C35.1165 18.8307 34.7129 18.5703 34.3418 18.1797C33.9772 17.7891 33.6842 17.1999 33.4629 16.4121C33.2415 15.6178 33.1309 14.5566 33.1309 13.2285V11.1191C33.1309 9.81055 33.2448 8.77539 33.4727 8.01367C33.7005 7.24544 34 6.67578 34.3711 6.30469C34.7422 5.92708 35.1458 5.68294 35.582 5.57227C36.0182 5.45508 36.4447 5.39648 36.8613 5.39648C37.265 5.39648 37.6816 5.45182 38.1113 5.5625C38.541 5.66667 38.9382 5.9043 39.3027 6.27539C39.6673 6.63997 39.9635 7.20964 40.1914 7.98438C40.4193 8.7526 40.5332 9.79753 40.5332 11.1191V13.2285C40.5332 14.5371 40.416 15.5853 40.1816 16.373C39.9473 17.1543 39.6445 17.7467 39.2734 18.1504C38.9023 18.5475 38.502 18.8145 38.0723 18.9512C37.6491 19.0814 37.2422 19.1465 36.8516 19.1465ZM36.8711 17.3105C37.3138 17.3105 37.6198 17.0664 37.7891 16.5781C37.9648 16.0898 38.0527 15.2174 38.0527 13.9609V10.6113C38.0527 9.34831 37.9648 8.4694 37.7891 7.97461C37.6198 7.47982 37.3138 7.23242 36.8711 7.23242C36.4089 7.23242 36.0833 7.47982 35.8945 7.97461C35.7057 8.4694 35.6113 9.34831 35.6113 10.6113V13.9609C35.6113 15.2174 35.7057 16.0898 35.8945 16.5781C36.0833 17.0664 36.4089 17.3105 36.8711 17.3105ZM44.9277 0.679688V2.86719L43.4629 7.47656H41.5391L42.3105 3.59961V0.679688H44.9277ZM45.4551 16.1875C45.4551 15.8945 45.4811 15.6113 45.5332 15.3379C45.5918 15.0645 45.6471 14.8464 45.6992 14.6836H47.4375C47.4375 15.6602 47.5579 16.3438 47.7988 16.7344C48.0462 17.1185 48.3978 17.3105 48.8535 17.3105C49.179 17.3105 49.4329 17.2129 49.6152 17.0176C49.7975 16.8158 49.8887 16.5781 49.8887 16.3047C49.8887 16.0182 49.8105 15.7415 49.6543 15.4746C49.5046 15.2077 49.2962 14.9147 49.0293 14.5957L47.3008 12.4668C46.832 11.8743 46.4121 11.2559 46.041 10.6113C45.6764 9.96029 45.4941 9.24414 45.4941 8.46289C45.4941 7.76628 45.6471 7.19336 45.9531 6.74414C46.2591 6.28841 46.6628 5.94987 47.1641 5.72852C47.6654 5.50716 48.209 5.39648 48.7949 5.39648C49.765 5.39648 50.5397 5.63086 51.1191 6.09961C51.6986 6.56185 51.9883 7.25846 51.9883 8.18945C51.9883 8.49544 51.959 8.79818 51.9004 9.09766C51.8483 9.39062 51.7962 9.64128 51.7441 9.84961H50.0352C50.0221 8.96419 49.918 8.30664 49.7227 7.87695C49.5273 7.44727 49.2051 7.23242 48.7559 7.23242C48.3783 7.23242 48.1178 7.34961 47.9746 7.58398C47.8314 7.81836 47.7598 8.07878 47.7598 8.36523C47.7598 8.67773 47.8379 8.96094 47.9941 9.21484C48.1504 9.46224 48.3522 9.74219 48.5996 10.0547L50.5527 12.418C50.7415 12.6523 50.9596 12.9518 51.207 13.3164C51.4544 13.6745 51.6693 14.0814 51.8516 14.5371C52.0404 14.9863 52.1348 15.4746 52.1348 16.002C52.1348 16.946 51.8385 17.7077 51.2461 18.2871C50.6536 18.86 49.8073 19.1465 48.707 19.1465C48.1081 19.1465 47.5612 19.0553 47.0664 18.873C46.5716 18.6842 46.1777 18.375 45.8848 17.9453C45.5983 17.5091 45.4551 16.9232 45.4551 16.1875ZM0.376953 27.3203H2.93555C3.50195 27.3203 4.08789 27.3561 4.69336 27.4277C5.29883 27.4993 5.86198 27.6589 6.38281 27.9062C6.90365 28.1471 7.32357 28.5215 7.64258 29.0293C7.9681 29.5371 8.13086 30.2272 8.13086 31.0996V31.9102C8.13086 32.7956 7.91927 33.5182 7.49609 34.0781C7.07943 34.6315 6.61393 35.0026 6.09961 35.1914V35.2695C6.85482 35.569 7.42773 35.9987 7.81836 36.5586C8.20898 37.1185 8.4043 37.8932 8.4043 38.8828V39.7324C8.4043 40.6374 8.25781 41.373 7.96484 41.9395C7.67839 42.4993 7.28451 42.929 6.7832 43.2285C6.2819 43.528 5.70898 43.7331 5.06445 43.8438C4.41992 43.9479 3.74284 44 3.0332 44H0.376953V27.3203ZM3.3457 34.459C4.02279 34.459 4.56315 34.293 4.9668 33.9609C5.37044 33.6224 5.57227 33.0625 5.57227 32.2812V31.5977C5.57227 30.8229 5.40951 30.224 5.08398 29.8008C4.75846 29.3776 4.17904 29.166 3.3457 29.166H2.90625V34.459H3.3457ZM3.58008 42.1543C4.25716 42.1543 4.79427 41.9883 5.19141 41.6562C5.59505 41.3177 5.79688 40.7578 5.79688 39.9766V38.6777C5.79688 37.8965 5.63411 37.2975 5.30859 36.8809C4.98958 36.4577 4.41341 36.2461 3.58008 36.2461H2.90625V42.1543H3.58008ZM12.8477 36.5293C13.0951 36.4056 13.362 36.2786 13.6484 36.1484C13.9349 36.0182 14.1986 35.9108 14.4395 35.8262V34.1953C14.4395 33.8568 14.4232 33.541 14.3906 33.248C14.3646 32.9551 14.2767 32.7174 14.127 32.5352C13.9837 32.3464 13.7363 32.252 13.3848 32.252C13.0332 32.252 12.7174 32.3952 12.4375 32.6816C12.1576 32.9681 12.0176 33.4987 12.0176 34.2734V34.8105H10.1328C10.0156 34.3027 9.95703 33.86 9.95703 33.4824C9.95703 32.4798 10.2858 31.7181 10.9434 31.1973C11.6009 30.6699 12.4408 30.4062 13.4629 30.4062C14.3548 30.4062 15.0514 30.5332 15.5527 30.7871C16.054 31.0345 16.4056 31.4121 16.6074 31.9199C16.8092 32.4212 16.9102 33.0592 16.9102 33.834V44H15.0059L14.8301 42.8477C14.5697 43.2253 14.2246 43.5378 13.7949 43.7852C13.3652 44.0326 12.8672 44.1562 12.3008 44.1562C11.7148 44.1562 11.2331 44.0065 10.8555 43.707C10.4779 43.4076 10.1947 43.0137 10.0059 42.5254C9.82357 42.0306 9.73242 41.4935 9.73242 40.9141C9.73242 39.8073 9.99609 38.9284 10.5234 38.2773C11.0508 37.6198 11.8255 37.0371 12.8477 36.5293ZM13.3945 42.2715C13.6029 42.2715 13.7949 42.2194 13.9707 42.1152C14.1465 42.0046 14.3027 41.8711 14.4395 41.7148V37.4766C14.3158 37.5286 14.1823 37.5905 14.0391 37.6621C13.8958 37.7337 13.7298 37.8281 13.541 37.9453C13.196 38.1602 12.8737 38.4824 12.5742 38.9121C12.2747 39.3353 12.125 39.8757 12.125 40.5332C12.125 41.0475 12.2259 41.4674 12.4277 41.793C12.6296 42.112 12.9518 42.2715 13.3945 42.2715ZM19.4004 30.5527H21.207L21.4219 31.9199C21.6888 31.4121 22.0013 31.0312 22.3594 30.7773C22.7174 30.5234 23.082 30.3965 23.4531 30.3965C24.8398 30.3965 25.5332 31.2689 25.5332 33.0137C25.5332 33.235 25.5007 33.528 25.4355 33.8926C25.3704 34.2507 25.2923 34.5664 25.2012 34.8398H23.4824V33.7949C23.4824 33.2546 23.401 32.89 23.2383 32.7012C23.0755 32.5059 22.8737 32.4082 22.6328 32.4082C22.3268 32.4082 22.0729 32.6491 21.8711 33.1309V44H19.4004V30.5527ZM26.8418 26.2363H29.3125V29.8203L29.2344 31.5977L29.2441 31.6074C29.472 31.2949 29.7682 31.0182 30.1328 30.7773C30.4974 30.5299 30.9466 30.4062 31.4805 30.4062C31.6888 30.4062 31.946 30.4486 32.252 30.5332C32.5645 30.6113 32.8737 30.8034 33.1797 31.1094C33.4922 31.4089 33.7526 31.8841 33.9609 32.5352C34.1693 33.1862 34.2734 34.0846 34.2734 35.2305V39.3027C34.2734 40.4421 34.166 41.3405 33.9512 41.998C33.7428 42.6491 33.4792 43.1309 33.1602 43.4434C32.8477 43.7493 32.5286 43.9447 32.2031 44.0293C31.8841 44.1139 31.6107 44.1562 31.3828 44.1562C30.7513 44.1562 30.2467 44.013 29.8691 43.7266C29.498 43.4336 29.2018 43.1081 28.9805 42.75L28.7754 44H26.8418V26.2363ZM29.3125 41.0996C29.4232 41.347 29.5729 41.5716 29.7617 41.7734C29.957 41.9688 30.2174 42.0664 30.543 42.0664C30.7839 42.0664 30.9954 42.0013 31.1777 41.8711C31.3665 41.7409 31.513 41.5 31.6172 41.1484C31.7279 40.7904 31.7832 40.2793 31.7832 39.6152V34.8496C31.7832 34.179 31.7311 33.6712 31.627 33.3262C31.5228 32.9746 31.3763 32.7337 31.1875 32.6035C31.0052 32.4733 30.7936 32.4082 30.5527 32.4082C30.2533 32.4082 30.0026 32.4993 29.8008 32.6816C29.599 32.8574 29.4362 33.069 29.3125 33.3164V41.0996ZM36.1777 38.4922V35.9531C36.1777 34.9245 36.2656 34.0716 36.4414 33.3945C36.6172 32.7174 36.8483 32.1771 37.1348 31.7734C37.4277 31.3698 37.7467 31.0703 38.0918 30.875C38.4434 30.6797 38.7917 30.5527 39.1367 30.4941C39.4818 30.429 39.7975 30.3965 40.084 30.3965C40.6764 30.3965 41.2233 30.5234 41.7246 30.7773C42.2259 31.0247 42.6263 31.4544 42.9258 32.0664C43.2318 32.6719 43.3848 33.515 43.3848 34.5957C43.3848 35.1361 43.3555 35.6895 43.2969 36.2559C43.2383 36.8158 43.1602 37.3105 43.0625 37.7402H38.6582V39.1074C38.6582 40.2793 38.7559 41.1061 38.9512 41.5879C39.153 42.0697 39.5339 42.3105 40.0938 42.3105C40.3997 42.3105 40.6764 42.1803 40.9238 41.9199C41.1712 41.653 41.2949 41.1647 41.2949 40.4551V39.8691H43.3262V40.4844C43.3262 41.7604 43.0202 42.6914 42.4082 43.2773C41.8027 43.8568 40.9238 44.1465 39.7715 44.1465C38.6126 44.1465 37.724 43.7038 37.1055 42.8184C36.487 41.9329 36.1777 40.4909 36.1777 38.4922ZM41.0801 36.0801C41.0931 35.9368 41.1029 35.722 41.1094 35.4355C41.1159 35.1426 41.1191 34.9082 41.1191 34.7324C41.1191 33.8405 41.0247 33.2025 40.8359 32.8184C40.6471 32.4342 40.3477 32.2389 39.9375 32.2324C39.5013 32.2324 39.179 32.4538 38.9707 32.8965C38.7624 33.3327 38.6582 34.1302 38.6582 35.2891V36.0801H41.0801ZM45.4355 30.5527H47.2422L47.457 31.9199C47.724 31.4121 48.0365 31.0312 48.3945 30.7773C48.7526 30.5234 49.1172 30.3965 49.4883 30.3965C50.875 30.3965 51.5684 31.2689 51.5684 33.0137C51.5684 33.235 51.5358 33.528 51.4707 33.8926C51.4056 34.2507 51.3275 34.5664 51.2363 34.8398H49.5176V33.7949C49.5176 33.2546 49.4362 32.89 49.2734 32.7012C49.1107 32.5059 48.9089 32.4082 48.668 32.4082C48.362 32.4082 48.1081 32.6491 47.9062 33.1309V44H45.4355V30.5527ZM56.7637 40.6211C56.7637 40.263 56.7832 39.931 56.8223 39.625C56.8678 39.319 56.9329 38.9935 57.0176 38.6484H58.9805V39.3906C58.9805 40.2891 59.1172 40.9792 59.3906 41.4609C59.6641 41.9362 60.084 42.1738 60.6504 42.1738C61.627 42.1738 62.1152 41.6953 62.1152 40.7383C62.1152 40.3672 62.0339 39.9766 61.8711 39.5664C61.7148 39.1562 61.4056 38.6549 60.9434 38.0625L58.3066 34.752C57.8444 34.153 57.4831 33.554 57.2227 32.9551C56.9688 32.3561 56.8418 31.6888 56.8418 30.9531C56.8418 29.8464 57.1836 28.9414 57.8672 28.2383C58.5573 27.5286 59.5111 27.1738 60.7285 27.1738C61.7116 27.1738 62.4831 27.3529 63.043 27.7109C63.6029 28.0625 63.9967 28.5085 64.2246 29.0488C64.459 29.5892 64.5762 30.1426 64.5762 30.709C64.5762 31.0671 64.5469 31.3991 64.4883 31.7051C64.4362 32.0046 64.3743 32.3366 64.3027 32.7012H62.3496V31.9004C62.3496 31.0215 62.2096 30.3444 61.9297 29.8691C61.6497 29.3939 61.2493 29.1562 60.7285 29.1562C60.2533 29.1562 59.8919 29.2897 59.6445 29.5566C59.4036 29.8171 59.2832 30.1686 59.2832 30.6113C59.2832 30.9889 59.3613 31.334 59.5176 31.6465C59.6738 31.9525 59.8724 32.2682 60.1133 32.5938L63.0527 36.3242C63.5931 37.0208 64.0033 37.6849 64.2832 38.3164C64.5697 38.9414 64.7129 39.638 64.7129 40.4062C64.7129 41.5586 64.3451 42.4733 63.6094 43.1504C62.8737 43.821 61.8939 44.1562 60.6699 44.1562C59.6673 44.1562 58.8796 43.987 58.3066 43.6484C57.7402 43.3034 57.3398 42.8607 57.1055 42.3203C56.8776 41.7799 56.7637 41.2135 56.7637 40.6211ZM66.6562 26.2363H69.127V29.4004L69 31.7051C69.3646 31.2038 69.7715 30.862 70.2207 30.6797C70.6699 30.4909 71.1224 30.3965 71.5781 30.3965C72.3594 30.3965 72.9648 30.6732 73.3945 31.2266C73.8242 31.7799 74.0391 32.6035 74.0391 33.6973V44H71.5684V33.9902C71.5684 33.3978 71.4772 32.9876 71.2949 32.7598C71.1126 32.5254 70.8457 32.4082 70.4941 32.4082C70.2467 32.4082 70.0026 32.4928 69.7617 32.6621C69.5273 32.8314 69.3158 33.0592 69.127 33.3457V44H66.6562V26.2363ZM79.9375 44.1465C79.5078 44.1465 79.0749 44.0846 78.6387 43.9609C78.2025 43.8307 77.7988 43.5703 77.4277 43.1797C77.0632 42.7891 76.7702 42.1999 76.5488 41.4121C76.3275 40.6178 76.2168 39.5566 76.2168 38.2285V36.1191C76.2168 34.8105 76.3307 33.7754 76.5586 33.0137C76.7865 32.2454 77.0859 31.6758 77.457 31.3047C77.8281 30.9271 78.2318 30.6829 78.668 30.5723C79.1042 30.4551 79.5306 30.3965 79.9473 30.3965C80.3509 30.3965 80.7676 30.4518 81.1973 30.5625C81.627 30.6667 82.0241 30.9043 82.3887 31.2754C82.7533 31.64 83.0495 32.2096 83.2773 32.9844C83.5052 33.7526 83.6191 34.7975 83.6191 36.1191V38.2285C83.6191 39.5371 83.502 40.5853 83.2676 41.373C83.0332 42.1543 82.7305 42.7467 82.3594 43.1504C81.9883 43.5475 81.5879 43.8145 81.1582 43.9512C80.735 44.0814 80.3281 44.1465 79.9375 44.1465ZM79.957 42.3105C80.3997 42.3105 80.7057 42.0664 80.875 41.5781C81.0508 41.0898 81.1387 40.2174 81.1387 38.9609V35.6113C81.1387 34.3483 81.0508 33.4694 80.875 32.9746C80.7057 32.4798 80.3997 32.2324 79.957 32.2324C79.4948 32.2324 79.1693 32.4798 78.9805 32.9746C78.7917 33.4694 78.6973 34.3483 78.6973 35.6113V38.9609C78.6973 40.2174 78.7917 41.0898 78.9805 41.5781C79.1693 42.0664 79.4948 42.3105 79.957 42.3105ZM88.2676 44.7617V48.3457H85.7969V30.5527H87.7305L87.9551 31.9688C88.1829 31.5977 88.4954 31.2461 88.8926 30.9141C89.2897 30.5755 89.8073 30.4062 90.4453 30.4062C90.6536 30.4062 90.9108 30.4486 91.2168 30.5332C91.5293 30.6113 91.8385 30.8034 92.1445 31.1094C92.457 31.4089 92.7174 31.8841 92.9258 32.5352C93.1341 33.1862 93.2383 34.0846 93.2383 35.2305V39.3027C93.2383 40.4421 93.1309 41.3405 92.916 41.998C92.7077 42.6491 92.444 43.1309 92.125 43.4434C91.8125 43.7493 91.4935 43.9447 91.168 44.0293C90.849 44.1139 90.5755 44.1562 90.3477 44.1562C89.8268 44.1562 89.3906 44.0521 89.0391 43.8438C88.694 43.6354 88.4108 43.3913 88.1895 43.1113L88.2676 44.7617ZM88.2676 41.0801C88.3783 41.334 88.528 41.5618 88.7168 41.7637C88.9121 41.9655 89.1758 42.0664 89.5078 42.0664C89.7487 42.0664 89.9603 42.0013 90.1426 41.8711C90.3314 41.7409 90.4779 41.5 90.582 41.1484C90.6927 40.7904 90.748 40.2793 90.748 39.6152V34.8496C90.748 34.179 90.696 33.6712 90.5918 33.3262C90.4876 32.9746 90.3411 32.7337 90.1523 32.6035C89.9701 32.4733 89.7585 32.4082 89.5176 32.4082C89.2116 32.4082 88.9577 32.5026 88.7559 32.6914C88.554 32.8737 88.3913 33.0885 88.2676 33.3359V41.0801Z" fill="white"/>
</svg>
